<svg xmlns="http://www.w3.org/2000/svg" version="1.1" xmlns:xlink="http://www.w3.org/1999/xlink" xmlns:svgjs="http://svgjs.dev/svgjs" width="150" height="50" viewBox="0 0 2000 575"><g transform="matrix(1,0,0,1,-1.2121212121212466,6.539749893250871)"><svg viewBox="0 0 396 114" data-background-color="#ffffff" preserveAspectRatio="xMidYMid meet" height="575" width="2000" xmlns="http://www.w3.org/2000/svg" xmlns:xlink="http://www.w3.org/1999/xlink"><g id="tight-bounds" transform="matrix(1,0,0,1,0.2400000000000091,0.30810873540630723)"><svg viewBox="0 0 395.52 113.3837825291874" height="113.3837825291874" width="395.52"><g><svg viewBox="0 0 632.5598651475134 181.33603910441386" height="113.3837825291874" width="395.52"><g transform="matrix(1,0,0,1,0,25.06163782123231)"><svg viewBox="0 0 395.52 131.21276346194924" height="131.21276346194924" width="395.52"><g id="textblocktransform"><svg viewBox="0 0 395.52 131.21276346194924" height="131.21276346194924" width="395.52" id="textblock"><g><svg viewBox="0 0 395.52 131.21276346194924" height="131.21276346194924" width="395.52"><g transform="matrix(1,0,0,1,0,0)"><svg width="395.52" viewBox="0.95 -36.38912895616001 111.94 37.13912895616001" height="131.21276346194924" data-palette-color="#3d3839"><path d="M12.75-6.55Q13.1-7.6 13.83-9.58 14.55-11.55 15-12.55L15-12.55Q15.5-13.45 16.6-16.73 17.7-20 18.4-22.2L18.4-22.2 20.5-27.4Q21.55-29.85 21.75-30.45L21.75-30.45Q22.2-31.5 22.7-33.2L22.7-33.2 23.2-34.6Q23.3-35 23.48-35.1 23.65-35.2 24-35.05L24-35.05Q24.3-34.95 24.73-34.95 25.15-34.95 25.25-34.95L25.25-34.95Q25.55-34.95 25.55-34.8L25.55-34.8Q25.55-34.7 25.35-34.3L25.35-34.3Q24.35-31.65 23.65-30.45L23.65-30.45Q23.15-29.55 21.25-24.08 19.35-18.6 18.8-16.85L18.8-16.85Q18.75-16.75 16.5-10.45L16.5-10.45Q15.15-6.65 14.85-5.85L14.85-5.85Q14.3-4.5 13.68-2.73 13.05-0.95 12.95-0.75L12.95-0.75Q12.85-0.35 12.73-0.25 12.6-0.15 12.3-0.15L12.3-0.15Q12.05-0.15 11.95-0.23 11.85-0.3 11.83-0.4 11.8-0.5 11.75-0.55L11.75-0.55 10.95-3.05Q9.55-7.6 9.2-8.55L9.2-8.55 5.8-18.15Q5.85-18.05 4.5-22.3L4.5-22.3Q3.65-25.3 2.9-27.5L2.9-27.5Q2.65-28.05 1.8-31.35L1.8-31.35 1.15-33.9Q0.95-34.45 0.95-34.8L0.95-34.8Q0.95-35 1.05-35.05 1.15-35.1 1.25-35.13 1.35-35.15 1.4-35.15L1.4-35.15 3.15-35.15 3.3-35.15Q3.75-35.15 3.9-35 4.05-34.85 4.1-34.63 4.15-34.4 4.2-34.3L4.2-34.3Q4.5-33.6 5.15-30.7L5.15-30.7Q5.6-28.85 7-24.55L7-24.55Q7.25-23.75 7.98-21.5 8.7-19.25 8.95-18.2L8.95-18.2Q9.6-15.55 10.75-12.1L10.75-12.1 11.3-10.55Q11.9-8.65 12.35-7.45L12.35-7.45Q12.7-6.65 12.75-6.55L12.75-6.55ZM30.7-35.25Q31.35-35.2 31.97-35.23 32.6-35.25 33.05-35.25L33.05-35.25Q34.15-35.25 34.65-35.2L34.65-35.2Q35.25-35.15 35.5-34.95 35.75-34.75 35.75-34.4L35.75-34.4Q35.75-34.15 35.7-33.85 35.65-33.55 35.6-33.3L35.6-33.3Q35.05-29.05 35-24.55L35-24.55Q34.95-23.25 34.95-20.55L34.95-20.55 35-14.5Q35.05-13.75 35.05-12.95L35.05-12.95 35.1-10.95Q35.2-8.35 35.2-7.1L35.2-7.1Q35.2-6.15 35.15-5.95L35.15-5.95Q35.1-5.75 35.1-4.8L35.1-4.8 35.15-2.05Q35.2-1.45 35.2-0.55L35.2-0.55Q35.25 0.1 34.82 0.28 34.4 0.45 33.7 0.4L33.7 0.4 29.15 0.4Q28.4 0.45 28.2 0.08 28-0.3 27.95-1.15L27.95-1.15Q27.85-1.5 28.05-3L28.05-3Q28.25-4.4 28.25-5.4L28.25-5.4Q28.25-5.75 28.6-12.15L28.6-12.15Q28.9-16.85 28.9-17.3L28.9-17.3 29-22.2 29.1-26.75 29.2-29.45 29.3-31.25 29.3-33.35Q29.3-35.3 30.3-35.3L30.3-35.3Q30.55-35.3 30.7-35.25L30.7-35.25ZM53.7-34.95Q54.59-34.95 54.92-34.68 55.25-34.4 55.25-33.55L55.25-33.55 55.14-31.5Q55-28.05 55-27.65L55-27.65Q55-20.5 54.7-15.8L54.7-15.8Q54.64-15.15 54.67-14.5 54.7-13.85 54.7-13.35L54.7-13.35Q54.75-12.6 54.75-10.9L54.75-10.9Q54.75-5.9 53.25-2.58 51.75 0.75 47.34 0.75L47.34 0.75Q43.75 0.75 41.87-1.33 39.99-3.4 39.47-5.73 38.95-8.05 38.95-9.65L38.95-9.65Q38.95-13.05 38.74-16.5L38.74-16.5Q38.65-18.4 39.8-18.4L39.8-18.4Q40.09-18.4 40.42-18.35 40.74-18.3 40.99-18.3L40.99-18.3Q41.49-18.25 42.45-18.35L42.45-18.35 44.2-18.4Q45.09-18.4 45.3-18.07 45.5-17.75 45.47-17.25 45.45-16.75 45.45-16.55L45.45-16.55Q45.45-15.85 45.5-15.4L45.5-15.4 45.55-13.35Q45.55-12.4 45.5-11.9L45.5-11.9Q45.45-11.5 45.45-10.6L45.45-10.6Q45.45-6.85 47.34-6.85L47.34-6.85Q48.59-6.85 48.59-13.6L48.59-13.6Q48.59-15.7 48.5-19L48.5-19Q48.4-21.6 48.4-22.25L48.4-22.25 48.34-33.6Q48.34-34.4 48.7-34.7 49.05-35 49.65-35L49.65-35 50.75-34.95 53.7-34.95ZM86.34-1Q86.59-0.5 86.59-0.35L86.59-0.35Q86.59 0.05 85.69 0.05L85.69 0.05 82.09 0.05Q81.89 0.05 81.69-0.3 81.49-0.65 81.34-1 81.19-1.35 81.09-1.6L81.09-1.6Q80.84-2.1 80.17-3.9 79.49-5.7 79.14-6.75L79.14-6.75Q78.99-7.25 78.54-8.22 78.09-9.2 77.89-9.6L77.89-9.6Q77.69-10.2 77.52-10.4 77.34-10.6 76.99-10.6L76.99-10.6Q76.64-10.6 76.12-10.55 75.59-10.5 74.99-10.45L74.99-10.45Q74.59-10.35 72.49-10.35L72.49-10.35Q71.04-10.35 69.64-10.25L69.64-10.25Q69.19-10.2 68.04-10.2L68.04-10.2 65.39-10.25Q65.14-10.25 65.02-10.05 64.89-9.85 64.84-9.58 64.79-9.3 64.74-9.15L64.74-9.15 64.44-7.9Q64.29-7.2 64.07-6.28 63.84-5.35 63.69-4.55L63.69-4.55 63.14-2.4 62.74-0.95Q62.59-0.35 62.47-0.18 62.34 0 62.09 0L62.09 0 59.14 0Q58.89 0 58.89-0.2L58.89-0.2Q58.89-0.3 59.09-0.9L59.09-0.9Q59.49-1.85 59.79-2.8L59.79-2.8Q61.64-9 61.99-10.9L61.99-10.9Q62.44-13.4 63.84-17.35L63.84-17.35Q64.29-19.05 64.69-20.45L64.69-20.45Q64.84-21.15 65.14-22.15L65.14-22.15Q66.09-25.65 67.04-28.7L67.04-28.7 68.29-32.7Q68.69-34.25 69.29-35.9L69.29-35.9Q69.59-36.65 69.99-36.25L69.99-36.25Q70.29-36.05 70.44-35.55 70.59-35.05 70.64-34.85L70.64-34.85Q70.79-34.25 73.29-28.85L73.29-28.85Q74.29-26.8 75.44-23.5L75.44-23.5Q75.94-22.05 78.19-17.25L78.19-17.25Q79.34-14.9 79.69-14L79.69-14Q80.49-12.25 83.99-5.5L83.99-5.5 84.59-4.25Q85.74-1.7 86.34-1L86.34-1ZM73.24-17.5Q73.59-17.55 73.84-17.55 74.09-17.55 74.24-17.6 74.39-17.65 74.39-17.75L74.39-17.75Q74.39-17.85 74.24-18.15L74.24-18.15Q73.99-18.6 73.09-20.68 72.19-22.75 71.84-23.8L71.84-23.8Q71.34-25 71.07-25.8 70.79-26.6 70.64-26.9L70.64-26.9Q70.54-27.15 70.42-27.4 70.29-27.65 70.19-27.8 70.09-27.95 69.99-27.95L69.99-27.95Q69.84-27.95 69.67-27.2 69.49-26.45 69.39-26.05L69.39-26.05Q68.49-23.15 68.09-21.65L68.09-21.65Q67.89-20.9 67.52-19.83 67.14-18.75 66.99-18.35L66.99-18.35Q66.84-17.85 66.84-17.55L66.84-17.55Q66.84-17.25 67.29-17.25L67.29-17.25Q68.34-17.25 70.52-17.32 72.69-17.4 73.24-17.5L73.24-17.5ZM93.44-33.4L94.69-29.25Q95.74-25.95 97.14-22.75L97.14-22.75Q97.79-21.25 98.54-18.95L98.54-18.95Q99.34-16.55 99.34-16.55L99.34-16.55 99.74-17.8 100.49-19.95Q100.99-21.45 101.97-24.03 102.94-26.6 103.29-27.3L103.29-27.3Q104.69-31.35 105.09-33.05L105.09-33.05Q105.34-34.05 105.74-34.3 106.14-34.55 106.52-34.52 106.89-34.5 106.99-34.5L106.99-34.5 109.69-34.55Q110.94-34.55 111.84-34.45L111.84-34.45Q112.89-34.3 112.89-33.95L112.89-33.95Q112.89-33.9 112.79-33.5L112.79-33.5Q112.69-33.25 112.57-32.88 112.44-32.5 112.29-32.05L112.29-32.05Q111.09-28.5 110.74-27.7L110.74-27.7Q110.09-25.8 108.54-22L108.54-22 106.44-16.5Q105.34-13.8 103.64-9.5 101.94-5.2 101.79-4.6L101.79-4.6Q101.59-4 101.37-2.68 101.14-1.35 101.04-0.95L101.04-0.95Q100.89-0.35 100.72-0.13 100.54 0.1 100.24 0.05L100.24 0.05 97.29 0.1 93.34 0.15Q92.69 0.15 92.69-0.15L92.69-0.15Q92.69-0.3 92.77-0.43 92.84-0.55 92.89-0.7L92.89-0.7 94.69-5.55Q94.84-6.35 95.44-7.7L95.44-7.7Q95.59-8.1 95.74-8.47 95.89-8.85 95.99-9.25L95.99-9.25Q96.09-9.55 96.29-9.95 96.49-10.35 96.54-10.63 96.59-10.9 96.49-11.15L96.49-11.15Q96.49-11.15 95.94-12.7L95.94-12.7Q95.24-14.9 94.99-15.5L94.99-15.5Q94.69-16.25 94.19-17.95L94.19-17.95Q93.84-19.1 93.54-20L93.54-20Q93.14-21 91.74-25.05 90.34-29.1 89.69-31.2L89.69-31.2Q89.39-32.1 89.09-32.75L89.09-32.75Q88.74-33.55 88.74-33.85L88.74-33.85Q88.74-34.2 89.12-34.33 89.49-34.45 90.24-34.5L90.24-34.5Q90.99-34.55 92.74-34.45L92.74-34.45Q93.14-34.4 93.24-34.25 93.34-34.1 93.34-33.88 93.34-33.65 93.44-33.4L93.44-33.4Z" opacity="1" transform="matrix(1,0,0,1,0,0)" fill="#ffffff" class="wordmark-text-0" data-fill-palette-color="primary" id="text-0"></path></svg></g></svg></g></svg></g></svg></g><g transform="matrix(1,0,0,1,426.49618434704314,0)"><svg viewBox="0 0 206.06368080047028 181.33603910441386" height="181.33603910441386" width="206.06368080047028"><g><svg xmlns="http://www.w3.org/2000/svg" xmlns:xlink="http://www.w3.org/1999/xlink" version="1.1" x="0" y="0" viewBox="0 6 100 88" enable-background="new 0 0 100 100" xml:space="preserve" height="181.33603910441386" width="206.06368080047028" class="icon-icon-0" data-fill-palette-color="accent" id="icon-0"><g fill="#915eff" data-fill-palette-color="accent"><path d="M41.751 59.098V65.217L20 55.789V50.557L41.751 41.13V47.292L26.595 53.131z" fill="#ffffff" data-fill-palette-color="accent"></path><path d="M55.2 41L49.145 65.93A31 31 0 0 1 48.616 67.876C48.465 68.352 48.234 68.725 47.925 68.988 47.615 69.256 47.164 69.388 46.573 69.388 45.103 69.388 44.367 68.752 44.367 67.486 44.367 67.154 44.512 66.326 44.8 65L50.833 40.07C51.15 38.744 51.452 37.836 51.74 37.346S52.591 36.611 53.428 36.611C54.149 36.611 54.699 36.784 55.081 37.13S55.654 37.952 55.654 38.557C55.654 39.004 55.502 39.818 55.2 41" fill="#ffffff" data-fill-palette-color="accent"></path><path d="M80 55.789L58.249 65.26V59.141L73.449 53.174 58.249 47.292V41.216L80 50.6z" fill="#ffffff" data-fill-palette-color="accent"></path></g><path d="M94 6H6A6 6 0 0 0 0 12V88A6 6 0 0 0 6 94H94A6 6 0 0 0 100 88V12A6 6 0 0 0 94 6M79 10C81.205 10 83 11.794 83 14S81.205 18 79 18 75 16.206 75 14 76.795 10 79 10M68 10C70.205 10 72 11.794 72 14S70.205 18 68 18 64 16.206 64 14 65.795 10 68 10M94 88H6V22H94zM90 18C87.795 18 86 16.206 86 14S87.795 10 90 10 94 11.794 94 14 92.205 18 90 18" fill="#ffffff" data-fill-palette-color="accent"></path></svg></g></svg></g></svg></g><defs></defs></svg><rect width="395.52" height="113.3837825291874" fill="none" stroke="none" visibility="hidden"></rect></g></svg></g></svg>